<mxfile host="app.diagrams.net" modified="2024-01-08T03:03:02.830Z" agent="Mozilla/5.0 (X11; Ubuntu; Linux x86_64; rv:121.0) Gecko/20100101 Firefox/121.0" version="22.1.17" etag="vY60ybSdKb-ilvHkC0R1" type="github">
  <diagram name="Page-1" id="2STNURsxhUe-w0SkS-pT">
    <mxGraphModel>
      <root>
        <mxCell id="0" />
        <mxCell id="1" parent="0" />
      </root>
    </mxGraphModel>
  </diagram>
</mxfile>
